<mxfile host="app.diagrams.net" agent="Mozilla/5.0 (Windows NT 10.0; Win64; x64) AppleWebKit/537.36 (KHTML, like Gecko) Chrome/130.0.0.0 Safari/537.36" version="24.8.6">
  <diagram id="C5RBs43oDa-KdzZeNtuy" name="Page-1">
    <mxGraphModel dx="1434" dy="738" grid="1" gridSize="10" guides="1" tooltips="1" connect="1" arrows="1" fold="1" page="1" pageScale="1" pageWidth="827" pageHeight="1169" math="0" shadow="0">
      <root>
        <mxCell id="WIyWlLk6GJQsqaUBKTNV-0" />
        <mxCell id="WIyWlLk6GJQsqaUBKTNV-1" parent="WIyWlLk6GJQsqaUBKTNV-0" />
        <mxCell id="fME0fRlacAQiMRfbm9nJ-1" value="" style="ellipse;whiteSpace=wrap;html=1;aspect=fixed;" vertex="1" parent="WIyWlLk6GJQsqaUBKTNV-1">
          <mxGeometry x="40" y="70" width="80" height="80" as="geometry" />
        </mxCell>
        <mxCell id="fME0fRlacAQiMRfbm9nJ-2" value="시작" style="ellipse;whiteSpace=wrap;html=1;aspect=fixed;fontFamily=Lucida Console;" vertex="1" parent="WIyWlLk6GJQsqaUBKTNV-1">
          <mxGeometry x="45" y="75" width="70" height="70" as="geometry" />
        </mxCell>
        <mxCell id="fME0fRlacAQiMRfbm9nJ-3" value="" style="endArrow=classic;html=1;rounded=0;exitX=1;exitY=0.5;exitDx=0;exitDy=0;" edge="1" parent="WIyWlLk6GJQsqaUBKTNV-1" source="fME0fRlacAQiMRfbm9nJ-1" target="fME0fRlacAQiMRfbm9nJ-5">
          <mxGeometry width="50" height="50" relative="1" as="geometry">
            <mxPoint x="390" y="360" as="sourcePoint" />
            <mxPoint x="170" y="110" as="targetPoint" />
          </mxGeometry>
        </mxCell>
        <mxCell id="fME0fRlacAQiMRfbm9nJ-4" value="" style="edgeStyle=orthogonalEdgeStyle;rounded=0;orthogonalLoop=1;jettySize=auto;html=1;" edge="1" parent="WIyWlLk6GJQsqaUBKTNV-1" source="fME0fRlacAQiMRfbm9nJ-5" target="fME0fRlacAQiMRfbm9nJ-7">
          <mxGeometry relative="1" as="geometry" />
        </mxCell>
        <mxCell id="fME0fRlacAQiMRfbm9nJ-5" value="몇 명이 참가할지&amp;nbsp;&lt;div&gt;선택한다&lt;/div&gt;" style="ellipse;whiteSpace=wrap;html=1;" vertex="1" parent="WIyWlLk6GJQsqaUBKTNV-1">
          <mxGeometry x="190" y="70" width="120" height="80" as="geometry" />
        </mxCell>
        <mxCell id="fME0fRlacAQiMRfbm9nJ-6" value="" style="endArrow=classic;html=1;rounded=0;exitX=0.5;exitY=1;exitDx=0;exitDy=0;" edge="1" parent="WIyWlLk6GJQsqaUBKTNV-1" source="fME0fRlacAQiMRfbm9nJ-5">
          <mxGeometry width="50" height="50" relative="1" as="geometry">
            <mxPoint x="390" y="360" as="sourcePoint" />
            <mxPoint x="250" y="180" as="targetPoint" />
          </mxGeometry>
        </mxCell>
        <mxCell id="fME0fRlacAQiMRfbm9nJ-7" value="참가자의&lt;div&gt;순서를 정한다&lt;/div&gt;" style="ellipse;whiteSpace=wrap;html=1;" vertex="1" parent="WIyWlLk6GJQsqaUBKTNV-1">
          <mxGeometry x="190" y="180" width="120" height="80" as="geometry" />
        </mxCell>
        <mxCell id="fME0fRlacAQiMRfbm9nJ-8" value="" style="endArrow=classic;html=1;rounded=0;" edge="1" parent="WIyWlLk6GJQsqaUBKTNV-1">
          <mxGeometry width="50" height="50" relative="1" as="geometry">
            <mxPoint x="250" y="260" as="sourcePoint" />
            <mxPoint x="250" y="290" as="targetPoint" />
          </mxGeometry>
        </mxCell>
        <mxCell id="fME0fRlacAQiMRfbm9nJ-9" value="첫 번째 참가자가&lt;div&gt;지시어를 말한다&lt;/div&gt;" style="ellipse;whiteSpace=wrap;html=1;" vertex="1" parent="WIyWlLk6GJQsqaUBKTNV-1">
          <mxGeometry x="615" y="171" width="120" height="80" as="geometry" />
        </mxCell>
        <mxCell id="fME0fRlacAQiMRfbm9nJ-10" value="" style="endArrow=classic;html=1;rounded=0;exitX=0.5;exitY=1;exitDx=0;exitDy=0;" edge="1" parent="WIyWlLk6GJQsqaUBKTNV-1" source="fME0fRlacAQiMRfbm9nJ-9">
          <mxGeometry width="50" height="50" relative="1" as="geometry">
            <mxPoint x="675" y="311" as="sourcePoint" />
            <mxPoint x="675" y="281" as="targetPoint" />
          </mxGeometry>
        </mxCell>
        <mxCell id="fME0fRlacAQiMRfbm9nJ-11" value="다음 참가자가&lt;div&gt;단어를 말한다&lt;/div&gt;" style="ellipse;whiteSpace=wrap;html=1;" vertex="1" parent="WIyWlLk6GJQsqaUBKTNV-1">
          <mxGeometry x="615" y="281" width="120" height="80" as="geometry" />
        </mxCell>
        <mxCell id="fME0fRlacAQiMRfbm9nJ-12" value="" style="endArrow=classic;html=1;rounded=0;" edge="1" parent="WIyWlLk6GJQsqaUBKTNV-1">
          <mxGeometry width="50" height="50" relative="1" as="geometry">
            <mxPoint x="675" y="361" as="sourcePoint" />
            <mxPoint x="675" y="391" as="targetPoint" />
          </mxGeometry>
        </mxCell>
        <mxCell id="fME0fRlacAQiMRfbm9nJ-13" value="맞는&lt;div&gt;단어인가?&lt;/div&gt;" style="rhombus;whiteSpace=wrap;html=1;" vertex="1" parent="WIyWlLk6GJQsqaUBKTNV-1">
          <mxGeometry x="615" y="391" width="120" height="80" as="geometry" />
        </mxCell>
        <mxCell id="fME0fRlacAQiMRfbm9nJ-14" value="예" style="endArrow=classic;html=1;rounded=0;exitX=0;exitY=0.5;exitDx=0;exitDy=0;entryX=0;entryY=0.5;entryDx=0;entryDy=0;" edge="1" parent="WIyWlLk6GJQsqaUBKTNV-1" source="fME0fRlacAQiMRfbm9nJ-13" target="fME0fRlacAQiMRfbm9nJ-11">
          <mxGeometry width="50" height="50" relative="1" as="geometry">
            <mxPoint x="815" y="241" as="sourcePoint" />
            <mxPoint x="545" y="431" as="targetPoint" />
            <Array as="points">
              <mxPoint x="545" y="431" />
              <mxPoint x="545" y="321" />
            </Array>
          </mxGeometry>
        </mxCell>
        <mxCell id="fME0fRlacAQiMRfbm9nJ-15" value="" style="endArrow=classic;html=1;rounded=0;exitX=1;exitY=0.5;exitDx=0;exitDy=0;entryX=0;entryY=0.5;entryDx=0;entryDy=0;" edge="1" parent="WIyWlLk6GJQsqaUBKTNV-1" source="fME0fRlacAQiMRfbm9nJ-13" target="fME0fRlacAQiMRfbm9nJ-17">
          <mxGeometry width="50" height="50" relative="1" as="geometry">
            <mxPoint x="890" y="140" as="sourcePoint" />
            <mxPoint x="900" y="330" as="targetPoint" />
          </mxGeometry>
        </mxCell>
        <mxCell id="fME0fRlacAQiMRfbm9nJ-16" value="아니요" style="edgeLabel;html=1;align=center;verticalAlign=middle;resizable=0;points=[];" vertex="1" connectable="0" parent="fME0fRlacAQiMRfbm9nJ-15">
          <mxGeometry x="0.0444" y="-2" relative="1" as="geometry">
            <mxPoint as="offset" />
          </mxGeometry>
        </mxCell>
        <mxCell id="fME0fRlacAQiMRfbm9nJ-17" value="틀렸다고&lt;div&gt;표시한다&lt;/div&gt;" style="ellipse;whiteSpace=wrap;html=1;" vertex="1" parent="WIyWlLk6GJQsqaUBKTNV-1">
          <mxGeometry x="825" y="391" width="120" height="80" as="geometry" />
        </mxCell>
        <mxCell id="fME0fRlacAQiMRfbm9nJ-18" value="" style="endArrow=classic;html=1;rounded=0;exitX=1;exitY=0.5;exitDx=0;exitDy=0;" edge="1" parent="WIyWlLk6GJQsqaUBKTNV-1" source="fME0fRlacAQiMRfbm9nJ-17">
          <mxGeometry width="50" height="50" relative="1" as="geometry">
            <mxPoint x="815" y="241" as="sourcePoint" />
            <mxPoint x="995" y="431" as="targetPoint" />
          </mxGeometry>
        </mxCell>
        <mxCell id="fME0fRlacAQiMRfbm9nJ-19" value="" style="ellipse;whiteSpace=wrap;html=1;aspect=fixed;" vertex="1" parent="WIyWlLk6GJQsqaUBKTNV-1">
          <mxGeometry x="995" y="391" width="80" height="80" as="geometry" />
        </mxCell>
        <mxCell id="fME0fRlacAQiMRfbm9nJ-20" value="끝" style="ellipse;whiteSpace=wrap;html=1;aspect=fixed;fontFamily=Lucida Console;" vertex="1" parent="WIyWlLk6GJQsqaUBKTNV-1">
          <mxGeometry x="1000" y="396" width="70" height="70" as="geometry" />
        </mxCell>
        <mxCell id="fME0fRlacAQiMRfbm9nJ-21" value="" style="whiteSpace=wrap;html=1;aspect=fixed;" vertex="1" parent="WIyWlLk6GJQsqaUBKTNV-1">
          <mxGeometry x="210" y="290" width="80" height="80" as="geometry" />
        </mxCell>
        <mxCell id="fME0fRlacAQiMRfbm9nJ-22" value="대기" style="whiteSpace=wrap;html=1;aspect=fixed;" vertex="1" parent="WIyWlLk6GJQsqaUBKTNV-1">
          <mxGeometry x="215" y="295" width="70" height="70" as="geometry" />
        </mxCell>
        <mxCell id="fME0fRlacAQiMRfbm9nJ-23" value="" style="whiteSpace=wrap;html=1;aspect=fixed;" vertex="1" parent="WIyWlLk6GJQsqaUBKTNV-1">
          <mxGeometry x="350" y="70" width="160" height="71" as="geometry" />
        </mxCell>
        <mxCell id="fME0fRlacAQiMRfbm9nJ-24" value="단어 입력&lt;div&gt;(Input 이벤트)&lt;/div&gt;" style="whiteSpace=wrap;html=1;aspect=fixed;" vertex="1" parent="WIyWlLk6GJQsqaUBKTNV-1">
          <mxGeometry x="355" y="75" width="150" height="61" as="geometry" />
        </mxCell>
        <mxCell id="fME0fRlacAQiMRfbm9nJ-25" value="" style="endArrow=classic;html=1;rounded=0;exitX=0.5;exitY=1;exitDx=0;exitDy=0;" edge="1" parent="WIyWlLk6GJQsqaUBKTNV-1">
          <mxGeometry width="50" height="50" relative="1" as="geometry">
            <mxPoint x="430" y="141" as="sourcePoint" />
            <mxPoint x="430" y="171" as="targetPoint" />
          </mxGeometry>
        </mxCell>
        <mxCell id="fME0fRlacAQiMRfbm9nJ-26" value="입력한 단어를&amp;nbsp;&lt;div&gt;저장한다&lt;/div&gt;" style="ellipse;whiteSpace=wrap;html=1;" vertex="1" parent="WIyWlLk6GJQsqaUBKTNV-1">
          <mxGeometry x="370" y="171" width="120" height="80" as="geometry" />
        </mxCell>
        <mxCell id="fME0fRlacAQiMRfbm9nJ-27" value="" style="whiteSpace=wrap;html=1;aspect=fixed;" vertex="1" parent="WIyWlLk6GJQsqaUBKTNV-1">
          <mxGeometry x="580" y="70" width="160" height="71" as="geometry" />
        </mxCell>
        <mxCell id="fME0fRlacAQiMRfbm9nJ-28" value="입력 버튼 클릭&lt;br&gt;&lt;div&gt;(click 이벤트)&lt;/div&gt;" style="whiteSpace=wrap;html=1;aspect=fixed;" vertex="1" parent="WIyWlLk6GJQsqaUBKTNV-1">
          <mxGeometry x="585" y="75" width="150" height="61" as="geometry" />
        </mxCell>
        <mxCell id="fME0fRlacAQiMRfbm9nJ-29" value="" style="endArrow=classic;html=1;rounded=0;exitX=0.5;exitY=1;exitDx=0;exitDy=0;" edge="1" parent="WIyWlLk6GJQsqaUBKTNV-1">
          <mxGeometry width="50" height="50" relative="1" as="geometry">
            <mxPoint x="660" y="141" as="sourcePoint" />
            <mxPoint x="660" y="171" as="targetPoint" />
          </mxGeometry>
        </mxCell>
      </root>
    </mxGraphModel>
  </diagram>
</mxfile>
